<?xml version="1.0" encoding="iso-8859-1"?>
<!-- Generator: Adobe Illustrator 19.0.0, SVG Export Plug-In . SVG Version: 6.00 Build 0)  -->
<svg version="1.1" id="Capa_1" xmlns="http://www.w3.org/2000/svg" xmlns:xlink="http://www.w3.org/1999/xlink" x="0px" y="0px"
	 viewBox="0 0 384.011 384.011" style="enable-background:new 0 0 384.011 384.011;" xml:space="preserve">
<polygon style="fill:#FCBF29;" points="368,94.085 322.4,245.045 121.68,245.045 86.8,94.085 "/>
<g>
	<ellipse style="fill:#FC1939;" cx="155.104" cy="332.877" rx="35.208" ry="35.128"/>
	<ellipse style="fill:#FC1939;" cx="295.96" cy="332.877" rx="35.208" ry="35.128"/>
</g>
<g>
	<path style="fill:#3C3A41;" d="M84.672,261.061h237.696c1.64,0,3.192-0.32,4.68-0.776c0.248-0.08,0.496-0.144,0.736-0.232
		c1.408-0.512,2.72-1.184,3.912-2.04c0.216-0.16,0.408-0.336,0.616-0.504c1.048-0.832,1.984-1.784,2.792-2.848
		c0.144-0.184,0.304-0.336,0.44-0.528c0.816-1.176,1.416-2.496,1.896-3.872c0.072-0.208,0.224-0.376,0.288-0.584l45.6-150.96
		c1.464-4.84,0.544-10.096-2.48-14.168c-3.016-4.072-7.784-6.464-12.848-6.464H99.528L84.392,12.413
		C82.72,5.149,76.256,0.005,68.8,0.005H16c-8.832,0-16,7.168-16,16s7.168,16,16,16h40.072l15.136,65.664c0,0.008,0,0.008,0,0.016
		l30.352,131.376H84.664c-23.384,0-42.408,19-42.408,42.344c0,23.352,19.024,42.344,42.408,42.344h22.976
		c-2.4,5.912-3.752,12.36-3.752,19.128c0,28.192,22.976,51.128,51.208,51.128s51.2-22.936,51.2-51.128
		c0-6.768-1.352-13.208-3.752-19.128h45.944c-2.4,5.912-3.752,12.36-3.752,19.128c0,28.192,22.976,51.128,51.208,51.128
		s51.208-22.936,51.208-51.128s-22.976-51.128-51.208-51.128H84.672c-5.736,0-10.408-4.64-10.408-10.344
		C74.264,265.701,78.936,261.061,84.672,261.061z M346.456,110.085l-35.936,118.96H134.408l-27.488-118.96L346.456,110.085
		L346.456,110.085z M174.312,332.877c0,10.544-8.616,19.128-19.2,19.128c-10.592,0-19.208-8.576-19.208-19.128
		s8.616-19.128,19.208-19.128C165.696,313.757,174.312,322.333,174.312,332.877z M295.96,352.005
		c-10.592,0-19.208-8.576-19.208-19.128s8.616-19.128,19.208-19.128s19.208,8.576,19.208,19.128S306.552,352.005,295.96,352.005z"/>
	<path style="fill:#3C3A41;" d="M225.616,201.989c8.832,0,16-7.168,16-16v-36.088c0-8.832-7.168-16-16-16s-16,7.168-16,16v36.088
		C209.616,194.821,216.784,201.989,225.616,201.989z"/>
	<path style="fill:#3C3A41;" d="M151.224,188.069c1.6,7.52,8.24,12.672,15.632,12.672c1.104,0,2.224-0.12,3.344-0.352
		c8.648-1.832,14.16-10.336,12.32-18.976l-7.144-33.6c-1.832-8.648-10.32-14.152-18.976-12.32
		c-8.648,1.832-14.16,10.336-12.32,18.976L151.224,188.069z"/>
	<path style="fill:#3C3A41;" d="M281.032,200.389c1.128,0.24,2.24,0.352,3.344,0.352c7.392,0,14.04-5.16,15.632-12.672l7.144-33.6
		c1.832-8.648-3.68-17.144-12.32-18.984c-8.664-1.824-17.144,3.68-18.976,12.328l-7.144,33.6
		C266.872,190.053,272.392,198.549,281.032,200.389z"/>
</g>
<g>
</g>
<g>
</g>
<g>
</g>
<g>
</g>
<g>
</g>
<g>
</g>
<g>
</g>
<g>
</g>
<g>
</g>
<g>
</g>
<g>
</g>
<g>
</g>
<g>
</g>
<g>
</g>
<g>
</g>
</svg>
