<?xml version="1.0" encoding="iso-8859-1"?>
<!-- Generator: Adobe Illustrator 19.0.0, SVG Export Plug-In . SVG Version: 6.00 Build 0)  -->
<svg version="1.1" id="Capa_1" xmlns="http://www.w3.org/2000/svg" xmlns:xlink="http://www.w3.org/1999/xlink" x="0px" y="0px"
	 viewBox="0 0 470 470" style="enable-background:new 0 0 470 470;" xml:space="preserve">
<g>
	<path style="fill:#FFFFFF;" d="M253.281,140.703c4.142,0,7.5,3.358,7.5,7.5v38.32h95.562l-21.997-60.82h-81.065
		C253.28,125.703,253.28,140.703,253.281,140.703z"/>
	<path style="fill:#FD830C;" d="M215.312,201.523H15v84.583h8.026c8.159-38.721,42.581-67.879,83.693-67.879
		s75.533,29.159,83.693,67.879h24.901V201.523z"/>
	<path style="fill:#FFAD61;" d="M440.038,255.5H455v-11.367c0-13.202-10.924-26.603-23.855-29.263l-64.877-13.347H253.281
		c-4.142,0-7.5-3.358-7.5-7.5v-45.82c0-4.142,3.357-7.499,7.499-7.5v-15c-12.664,0.001-22.968,10.304-22.968,22.969v45.351v92.083
		h80.328c7.396-21.99,28.191-37.879,52.641-37.879s45.245,15.889,52.641,37.879H455V270.5h-14.962c-4.142,0-7.5-3.358-7.5-7.5
		S435.896,255.5,440.038,255.5z M273.281,231.523h-20c-4.142,0-7.5-3.358-7.5-7.5s3.358-7.5,7.5-7.5h20c4.142,0,7.5,3.358,7.5,7.5
		S277.423,231.523,273.281,231.523z"/>
	<path style="fill:#4D3D36;" d="M434.167,200.178l-61.512-12.655l-25.994-71.871c-1.074-2.97-3.894-4.949-7.053-4.949h-86.328
		c-20.936,0-37.969,17.033-37.969,37.969v37.851H7.5c-4.142,0-7.5,3.358-7.5,7.5v99.583c0,4.142,3.358,7.5,7.5,7.5h13.751
		c-0.027,0.884-0.067,1.765-0.067,2.656c0,4.142,3.358,7.5,7.5,7.5s7.5-3.358,7.5-7.5c0-38.894,31.642-70.536,70.535-70.536
		s70.535,31.642,70.535,70.536c0,4.142,3.358,7.5,7.5,7.5s7.5-3.358,7.5-7.5c0-0.891-0.04-1.772-0.067-2.656h30.626h85.001
		c-0.042,0.881-0.067,1.765-0.067,2.656c0,30.622,24.913,55.535,55.535,55.535s55.535-24.913,55.535-55.535
		c0-0.891-0.026-1.776-0.067-2.656H462.5c4.142,0,7.5-3.358,7.5-7.5v-49.473C470,223.961,453.926,204.243,434.167,200.178z
		 M440.038,270.5H455v15.605h-39.078c-7.396-21.99-28.191-37.879-52.641-37.879s-45.245,15.889-52.641,37.879h-80.328v-92.083
		v-45.351c0-12.665,10.303-22.968,22.968-22.969c0.001,0,81.067,0,81.067,0l21.997,60.82h-95.562v-38.32c0-4.142-3.358-7.5-7.5-7.5
		c-4.143,0.001-7.5,3.358-7.5,7.5v45.82c0,4.142,3.358,7.5,7.5,7.5h112.986l64.877,13.347C444.076,217.53,455,230.931,455,244.133
		V255.5h-14.962c-4.142,0-7.5,3.358-7.5,7.5S435.896,270.5,440.038,270.5z M363.281,344.297c-22.351,0-40.535-18.184-40.535-40.535
		c0-22.352,18.184-40.536,40.535-40.536s40.535,18.184,40.535,40.536C403.816,326.113,385.632,344.297,363.281,344.297z
		 M106.719,218.226c-41.112,0-75.533,29.159-83.693,67.879H15v-84.583h200.312v84.583h-24.901
		C182.252,247.385,147.831,218.226,106.719,218.226z"/>
	<path style="fill:#4D3D36;" d="M273.281,216.523h-20c-4.142,0-7.5,3.358-7.5,7.5s3.358,7.5,7.5,7.5h20c4.142,0,7.5-3.358,7.5-7.5
		S277.423,216.523,273.281,216.523z"/>
	<path style="fill:#5D734F;" d="M363.281,263.226c-22.351,0-40.535,18.184-40.535,40.536c0,22.351,18.184,40.535,40.535,40.535
		s40.535-18.184,40.535-40.535C403.816,281.41,385.632,263.226,363.281,263.226z M363.281,329.297
		c-14.08,0-25.535-11.455-25.535-25.535c0-14.081,11.455-25.536,25.535-25.536s25.535,11.455,25.535,25.536
		C388.816,317.842,377.361,329.297,363.281,329.297z"/>
	<path style="fill:#BCC987;" d="M363.281,293.226c-5.809,0-10.535,4.726-10.535,10.536c0,5.809,4.726,10.535,10.535,10.535
		s10.535-4.726,10.535-10.535C373.816,297.952,369.09,293.226,363.281,293.226z"/>
	<path style="fill:#4D3D36;" d="M363.281,278.226c-14.08,0-25.535,11.455-25.535,25.536c0,14.08,11.455,25.535,25.535,25.535
		s25.535-11.455,25.535-25.535C388.816,289.681,377.361,278.226,363.281,278.226z M363.281,314.297
		c-5.809,0-10.535-4.726-10.535-10.535c0-5.81,4.726-10.536,10.535-10.536s10.535,4.726,10.535,10.536
		C373.816,309.571,369.09,314.297,363.281,314.297z"/>
	<path style="fill:#5D734F;" d="M106.719,263.226c-22.351,0-40.535,18.184-40.535,40.536c0,22.351,18.184,40.535,40.535,40.535
		s40.535-18.184,40.535-40.535C147.254,281.41,129.07,263.226,106.719,263.226z M106.719,329.297
		c-14.08,0-25.535-11.455-25.535-25.535c0-14.081,11.455-25.536,25.535-25.536s25.535,11.455,25.535,25.536
		C132.254,317.842,120.799,329.297,106.719,329.297z"/>
	<path style="fill:#4D3D36;" d="M106.719,248.226c-30.622,0-55.535,24.913-55.535,55.536c0,30.622,24.913,55.535,55.535,55.535
		s55.535-24.913,55.535-55.535C162.254,273.139,137.341,248.226,106.719,248.226z M106.719,344.297
		c-22.351,0-40.535-18.184-40.535-40.535c0-22.352,18.184-40.536,40.535-40.536s40.535,18.184,40.535,40.536
		C147.254,326.113,129.07,344.297,106.719,344.297z"/>
	<path style="fill:#BCC987;" d="M106.719,293.226c-5.809,0-10.535,4.726-10.535,10.536c0,5.809,4.726,10.535,10.535,10.535
		s10.535-4.726,10.535-10.535C117.254,297.952,112.528,293.226,106.719,293.226z"/>
	<path style="fill:#4D3D36;" d="M106.719,278.226c-14.08,0-25.535,11.455-25.535,25.536c0,14.08,11.455,25.535,25.535,25.535
		s25.535-11.455,25.535-25.535C132.254,289.681,120.799,278.226,106.719,278.226z M106.719,314.297
		c-5.809,0-10.535-4.726-10.535-10.535c0-5.81,4.726-10.536,10.535-10.536s10.535,4.726,10.535,10.536
		C117.254,309.571,112.528,314.297,106.719,314.297z"/>
</g>
<g>
</g>
<g>
</g>
<g>
</g>
<g>
</g>
<g>
</g>
<g>
</g>
<g>
</g>
<g>
</g>
<g>
</g>
<g>
</g>
<g>
</g>
<g>
</g>
<g>
</g>
<g>
</g>
<g>
</g>
</svg>
